# AST/ASF file generated using VICON BodyLanguage
# -----------------------------------------------
:version 1.10
:name VICON
:units
  mass 1.0
  length 0.45
  angle deg
:documentation
   .ast/.asf automatically generated from VICON data using
   VICON BodyBuilder and BodyLanguage model FoxedUp or BRILLIANT.MOD
:root
   order TX TY TZ RX RY RZ
   axis XYZ
   position 0 0 0  
   orientation 0 0 0 
:bonedata
  begin
     id 1 
     name lhipjoint
     direction 0.612567 -0.751349 0.245431 
     length 2.42285 
     axis 0 0 0  XYZ
  end
  begin
     id 2 
     name lfemur
     direction 0.34202 -0.939693 0  
     length 7.11304  
     axis 0 0 20  XYZ
    dof rx ry rz
    limits (-160.0 20.0)
           (-70.0 70.0)
           (-60.0 70.0)
  end
  begin
     id 3 
     name ltibia
     direction 0.34202 -0.939693 0   
     length 7.84529   
     axis 0 0 20   XYZ
    dof rx
    limits (-10.0 170.0)
  end
  begin
     id 4 
     name lfoot
     direction 0.0779239 -0.214094 0.9737   
     length 1.97176   
     axis -90 7.62852e-016 20   XYZ
    dof rx rz
    limits (-45.0 90.0)
           (-70.0 20.0)
  end
  begin
     id 5 
     name ltoes
     direction 1.53565e-011 -4.21709e-011 1   
     length 0.993197   
     axis -90 7.62852e-016 20   XYZ
    dof rx
    limits (-90.0 20.0)
  end
  begin
     id 6 
     name rhipjoint
     direction -0.665722 -0.709315 0.231701   
     length 2.56642  
     axis 0 0 0  XYZ 
  end
  begin
     id 7 
     name rfemur
     direction -0.34202 -0.939693 0   
     length 7.32108   
     axis 0 0 -20   XYZ
    dof rx ry rz
    limits (-160.0 20.0)
           (-70.0 70.0)
           (-70.0 60.0)
  end
  begin
     id 8 
     name rtibia
     direction -0.34202 -0.939693 0   
     length 7.81254   
     axis 0 0 -20   XYZ
    dof rx
    limits (-10.0 170.0)
 end
 begin
     id 9 
     name rfoot
     direction -0.0832806 -0.228812 0.969902   
     length 2.08278  
     axis -90 -7.62852e-016 -20   XYZ
    dof rx rz
    limits (-45.0 90.0)
           (-20.0 70.0)
  end
  begin
     id 10 
     name rtoes
     direction -1.53589e-011 -4.22086e-011 1   
     length 1.04609   
     axis -90 -7.62852e-016 -20   XYZ
    dof rx
    limits (-90.0 20.0)
  end
  begin
     id 11 
     name lowerback
     direction -0.00506013 0.988403 -0.151766   
     length 2.01978   
     axis 0 0 0   XYZ
    dof rx ry rz
    limits (-20.0 45.0)
           (-30.0 30.0)
           (-30.0 30.0)
  end
  begin
     id 12 
     name upperback
     direction -0.00836389 0.99968 0.0238859   
     length 2.01276   
     axis 0 0 0   XYZ
    dof rx ry rz
    limits (-20.0 45.0)
           (-30.0 30.0)
           (-30.0 30.0)
  end
  begin
     id 13 
     name thorax
     direction -0.00684136 0.995386 0.0957043   
     length 2.07303   
     axis 0 0 0   XYZ
    dof rx ry rz
    limits (-20.0 45.0)
           (-30.0 30.0)
           (-30.0 30.0)
  end
  begin
     id 14 
     name lowerneck
     direction -0.0161045 0.999661 0.0204485   
     length 1.91243   
     axis 0 0 0   XYZ
    dof rx ry rz
    limits (-20.0 45.0)
           (-30.0 30.0)
           (-30.0 30.0)
  end
  begin
     id 15 
     name upperneck
     direction 0.0553583 0.990946 -0.122319   
     length 1.91574   
     axis 0 0 0   XYZ
    dof rx ry rz
    limits (-20.0 45.0)
           (-30.0 30.0)
           (-30.0 30.0)
  end
  begin
     id 16
     name head
     direction 0.0180273 0.998839 -0.0446756  
     length 1.92693  
     axis 0 0 0   XYZ
    dof rx ry rz
    limits (-20.0 45.0)
           (-30.0 30.0)
           (-30.0 30.0)
  end
  begin
     id 17 
     name lclavicle
     direction 0.945646 0.319323 -0.0615358  
     length 4.0076  
     axis 0 0 0   XYZ
    dof ry rz
    limits (-20.0 10.0)
           (0.0 20.0)
  end
  begin
     id 18 
     name lhumerus
     direction 1 -4.48967e-011 -2.79996e-027   
     length 5.64147   
     axis 180 -30 -90   XYZ
    dof rx ry rz
    limits (-60.0 90.0)
           (-90.0 90.0)
           (-90.0 90.0)
  end
  begin
     id 19
     name lradius
     direction 1 -4.48976e-011 -9.5122e-027   
     length 2.86444   
     axis 180 -30 -90   XYZ
    dof rx
    limits (-10.0 170.0)
  end
  begin
     id 20
     name lwrist
     direction 1 -4.48983e-011 -1.24047e-026   
     length 1.43222   
     axis 9.05591e-015 90 90   XYZ
    dof ry
    limits (-180.0 0.0)
 end
  begin
     id 21 
     name lhand
     direction 1 -4.4892e-011 -2.48094e-026   
     length 0.722123   
     axis 1.58305e-014 90 90   XYZ
    dof rx rz
    limits (-90.0 90.0)
           (-45.0 45.0)
  end
  begin
     id 22 
     name lfingers
     direction 1 -4.48895e-011 -4.96187e-026   
     length 0.582194   
     axis 3.1661e-014 90 90   XYZ
    dof rx
    limits (0.0 90.0)
  end
  begin
     id 23
     name lthumb
     direction 0.707107 -6.34961e-011 0.707107   
     length 0.835918   
     axis -90 45 2.85299e-015   XYZ
    dof rx rz
    limits (-45.0 45.0)
           (-45.0 45.0)
  end
  begin
     id 24 
     name rclavicle
     direction -0.932635 0.324218 -0.15835   
     length 3.65819  
     axis 0 0 0   XYZ 
    dof ry rz
    limits (-10.0 20.0)
           (-20.0 0.0)
  end
  begin
     id 25 
     name rhumerus
     direction -1 -4.48965e-011 -4.02296e-027  
     length 5.44729   
     axis 180 30 90   XYZ
    dof rx ry rz
    limits (-90.0 60.0)
           (-90.0 90.0)
           (-90.0 90.0)
  end
  begin
     id 26 
     name rradius
     direction -1 -4.48957e-011 -8.81087e-027   
     length 3.08821   
     axis 180 30 90   XYZ
    dof rx
    limits (-10.0 170.0)
  end
  begin
     id 27 
     name rwrist
     direction -1 -4.49015e-011 -1.24047e-026   
     length 1.5441   
     axis 9.05591e-015 -90 -90   XYZ
    dof ry
    limits (-180.0 0.0)
  end
  begin
     id 28
     name rhand
     direction -1 -4.4891e-011 -2.48094e-026   
     length 0.821049   
     axis 1.58305e-014 -90 -90   XYZ
    dof rx rz
    limits (-90.0 90.0)
           (-45.0 45.0)
  end
  begin
     id 29
     name rfingers
     direction -1 -4.48985e-011 -4.96187e-026   
     length 0.661951   
     axis 3.1661e-014 -90 -90   XYZ
    dof rx
    limits (0.0 90.0)
  end
  begin
     id 30
     name rthumb
     direction -0.707107 -6.34906e-011 0.707107   
     length 0.950433   
     axis -90 -45 -2.85299e-015   XYZ
    dof rx rz
    limits (-45.0 45.0)
           (-45.0 45.0)
  end
:hierarchy
  begin
    root lhipjoint rhipjoint lowerback
    lhipjoint lfemur
    lfemur ltibia
    ltibia lfoot
    lfoot ltoes
    rhipjoint rfemur
    rfemur rtibia
    rtibia rfoot
    rfoot rtoes
    lowerback upperback
    upperback thorax
    thorax lowerneck lclavicle rclavicle
    lowerneck upperneck
    upperneck head
    lclavicle lhumerus
    lhumerus lradius
    lradius lwrist
    lwrist lhand lthumb
    lhand lfingers
    rclavicle rhumerus
    rhumerus rradius
    rradius rwrist
    rwrist rhand rthumb
    rhand rfingers
  end

#!OML:ASF F:\VICON\USERDATA\INSTALL\rory3\rory3.ASF
:FULLY-SPECIFIED
:DEGREES
1456
root 3.51397 17.6419 0.276169 -179.436 87.1204 -176.952
lowerback 2.46187 -0.783871 -0.29433
upperback -2.01046 -1.10796 -2.64177
thorax -3.49732 -0.565077 -2.49788
lowerneck -3.87384 -5.14255 -6.08037
upperneck 3.85417 -6.70608 3.87812
head 2.27585 -3.34199 2.07638
rclavicle 7.85199e-015 -3.18055e-015
rhumerus -73.7244 30.2511 -92.6186
rradius 88.0822
rwrist -51.9606
rhand 25.9384 6.38126
rfingers 7.12502
rthumb 50.0213 -14.8303
lclavicle 7.85199e-015 -3.18055e-015
lhumerus -16.3511 33.7178 18.8785
lradius 95.7178
lwrist 10.7935
lhand -4.82955 37.2227
lfingers 7.12502
lthumb 20.9572 66.1105
rfemur 3.59754 4.76973 19.6246
rtibia 15.5258
rfoot -23.2504 -12.2244
rtoes -5.2906
lfemur 2.81282 -0.4735 -15.5043
ltibia 10.0101
lfoot -10.3548 -3.1777
ltoes -0.958754
1457
root 3.51033 17.642 0.269093 -180.764 87.0593 -178.337
lowerback 2.50462 -0.80714 -0.296765
upperback -2.01575 -1.14054 -2.67577
thorax -3.52912 -0.581594 -2.52944
lowerneck -3.93298 -5.14535 -5.9768
upperneck 3.96162 -6.71019 3.79579
head 2.31391 -3.34435 2.02843
rclavicle -1.41137e-014 1.59028e-015
rhumerus -73.7563 30.2771 -92.7017
rradius 88.0753
rwrist -52.007
rhand 25.7148 6.36214
rfingers 7.12502
rthumb 49.8166 -14.9564
lclavicle -1.41137e-014 1.59028e-015
lhumerus -16.3645 33.5266 18.8635
lradius 95.7411
lwrist 11.0034
lhand -4.89031 37.1878
lfingers 7.12502
lthumb 20.8988 66.082
rfemur 3.52137 4.70826 19.5115
rtibia 15.555
rfoot -23.206 -12.2032
rtoes -5.54295
lfemur 2.70908 -0.530553 -15.6155
ltibia 10.0508
lfoot -10.4221 -3.13503
ltoes -1.50426
1458
root 3.50775 17.6413 0.264962 -182.584 87.0267 -180.203
lowerback 2.54704 -0.815191 -0.363349
upperback -2.02376 -1.15515 -2.70604
thorax -3.56137 -0.587396 -2.52203
lowerneck -3.95084 -5.15212 -5.8623
upperneck 4.0583 -6.72091 3.6857
head 2.33939 -3.35085 1.97015
rclavicle -1.10325e-014 -3.89618e-014
rhumerus -73.8139 30.2586 -92.7796
rradius 88.0404
rwrist -51.9605
rhand 25.7039 6.40935
rfingers 7.12502
rthumb 49.8066 -14.9143
lclavicle -1.10325e-014 -3.89618e-014
lhumerus -16.3196 33.2939 18.8605
lradius 95.798
lwrist 11.1412
lhand -5.18867 37.3946
lfingers 7.12502
lthumb 20.6121 66.3202
rfemur 3.43266 4.67775 19.3989
rtibia 15.621
rfoot -23.1654 -12.2997
rtoes -6.44281
lfemur 2.69164 -0.557183 -15.7338
ltibia 9.95232
lfoot -10.2923 -3.12606
ltoes -1.10644
1459
root 3.50496 17.6429 0.261414 -182.499 87.036 -180.112
lowerback 2.63101 -0.827827 -0.354646
upperback -2.01593 -1.17322 -2.68625
thorax -3.60123 -0.596744 -2.50443
lowerneck -3.90531 -5.12704 -5.80954
upperneck 4.09113 -6.68946 3.60988
head 2.33431 -3.33681 1.93792
rclavicle 3.77691e-015 7.95139e-016
rhumerus -73.9141 30.3079 -92.8751
rradius 88.0354
rwrist -51.9403
rhand 25.5444 6.46191
rfingers 7.12502
rthumb 49.6605 -14.9373
lclavicle 3.77691e-015 7.95139e-016
lhumerus -16.2883 33.1885 18.8539
lradius 95.8566
lwrist 11.1796
lhand -5.33871 37.5594
lfingers 7.12502
lthumb 20.468 66.5006
rfemur 3.36195 4.68648 19.3992
rtibia 15.7539
rfoot -23.2151 -12.1827
rtoes -5.5054
lfemur 2.8283 -0.548117 -15.7285
ltibia 9.673
lfoot -10.1423 -3.1031
ltoes -0.875565
1460
root 3.50643 17.6498 0.255559 -183.881 86.9723 -181.494
lowerback 2.66807 -0.863116 -0.421188
upperback -1.98703 -1.22296 -2.66456
thorax -3.59237 -0.619567 -2.44125
lowerneck -3.90732 -5.09644 -5.85693
upperneck 4.10962 -6.64573 3.60811
head 2.34063 -3.31593 1.94745
rclavicle 1.55052e-014 -4.77083e-015
rhumerus -73.9321 30.3829 -92.8567
rradius 88.0558
rwrist -51.896
rhand 25.5751 6.4464
rfingers 7.12502
rthumb 49.6887 -14.9383
lclavicle 1.55052e-014 -4.77083e-015
lhumerus -16.3267 33.1454 18.8514
lradius 95.9007
lwrist 11.0999
lhand -5.42125 37.3843
lfingers 7.12502
lthumb 20.3886 66.334
rfemur 3.33678 4.62666 19.2814
rtibia 15.8488
rfoot -23.3783 -11.8702
rtoes -3.13462
lfemur 2.96832 -0.607344 -15.8318
ltibia 9.39502
lfoot -10.0617 -3.03692
ltoes -0.886884
